<svg xmlns="http://www.w3.org/2000/svg" xmlns:xlink="http://www.w3.org/1999/xlink" viewBox="0 0 300 325.06"><defs><linearGradient id="linear-gradient" x1="96.02" y1="584.41" x2="125.49" y2="584.41" gradientTransform="translate(-8.84 -278.39)" gradientUnits="userSpaceOnUse"><stop offset="0" stop-color="#2b94f5"/><stop offset="1" stop-color="#002488"/></linearGradient><linearGradient id="linear-gradient-2" x1="264.4" y1="584.41" x2="293.28" y2="584.41" gradientTransform="translate(-8.84 -278.39)" gradientUnits="userSpaceOnUse"><stop offset="0" stop-color="#ffade1"/><stop offset="1" stop-color="#d722a9"/></linearGradient></defs><g id="Layer_2" data-name="Layer 2"><g id="Layer_1-2" data-name="Layer 1"><rect x="-12.53" y="12.53" width="325.06" height="300" transform="translate(-12.53 312.53) rotate(-90)" fill="#fff" opacity="0.5"/></g><g id="Layer_3" data-name="Layer 3"><rect x="87.18" y="302.04" width="29.47" height="7.96" fill="url(#linear-gradient)"/><rect x="255.56" y="302.04" width="28.88" height="7.96" fill="url(#linear-gradient-2)"/><polygon points="150 6.33 150 258.53 109.23 258.53 109.23 6.33 150 6.33 150 6.33" fill="#e263c1"/><polygon points="244.72 6.33 244.72 258.53 203.93 258.53 203.93 6.33 244.72 6.33 244.72 6.33" fill="#ee98d4"/><line x1="14.54" y1="208.05" x2="262.56" y2="208.05" fill="none" stroke="#d9d9d9" stroke-linejoin="round" stroke-width="0.83"/><line x1="14.54" y1="157.67" x2="262.56" y2="157.67" fill="none" stroke="#d9d9d9" stroke-linejoin="round" stroke-width="0.83"/><line x1="14.54" y1="107.19" x2="262.56" y2="107.19" fill="none" stroke="#d9d9d9" stroke-linejoin="round" stroke-width="0.83"/><line x1="14.54" y1="56.81" x2="262.56" y2="56.81" fill="none" stroke="#d9d9d9" stroke-linejoin="round" stroke-width="0.83"/><line x1="14.54" y1="15.75" x2="262.56" y2="15.75" fill="none" stroke="#d9d9d9" stroke-linejoin="round" stroke-width="0.83"/><polygon points="244.72 238.36 244.72 258.53 203.93 258.53 203.93 238.36 244.72 238.36 244.72 238.36" fill="#0368f9"/><polygon points="150 230.78 150 258.53 109.23 258.53 109.23 230.78 150 230.78 150 230.78" fill="#0249c6"/><polygon points="55.89 6.33 55.89 258.53 14.54 258.53 14.54 6.33 55.89 6.33 55.89 6.33" fill="#eb33be"/><polygon points="55.89 225.76 55.89 258.53 14.54 258.53 14.54 225.76 55.89 225.76 55.89 225.76" fill="#002488"/><line x1="262.56" y1="258.53" x2="14.54" y2="258.53" fill="none" stroke="#d9d9d9" stroke-linejoin="round" stroke-width="0.83"/><text transform="translate(18.26 235.05) scale(1.01 1)" font-size="9.36" fill="#fff" font-family="Calibri">13</text><text transform="translate(27.82 235.05) scale(1.01 1)" font-size="9.36" fill="#fff" font-family="Calibri">%</text><text transform="translate(113.65 242.15) scale(1.01 1)" font-size="9.36" fill="#fff" font-family="Calibri">11</text><text transform="translate(123.22 242.15) scale(1.01 1)" font-size="9.36" fill="#fff" font-family="Calibri">%</text><text transform="translate(211.21 248.44) scale(1.01 1)" font-size="9.36" fill="#fff" font-family="Calibri">8</text><text transform="translate(216.77 248.44) scale(1.01 1)" font-size="9.36" fill="#fff" font-family="Calibri">%</text><text transform="translate(21.56 29.37) scale(1.01 1)" font-size="9.36" fill="#1e0f00" font-family="Calibri">87%</text><text transform="translate(116.65 29.37) scale(1.01 1)" font-size="9.36" fill="#1e0f00" font-family="Calibri">88%</text><text transform="translate(208.74 29.37) scale(1.01 1)" font-size="9.36" fill="#1e0f00" font-family="Calibri">92%</text><text transform="translate(270.3 258.53) scale(1.01 1)" font-size="9.36" fill="#1e0f00" font-family="Calibri">0%</text><text transform="translate(270.3 208.05) scale(1.01 1)" font-size="9.36" fill="#1e0f00" font-family="Calibri">0%</text><text transform="translate(270.3 158.3) scale(1.01 1)" font-size="9.36" fill="#1e0f00" font-family="Calibri">0%</text><text transform="translate(270.3 107.19) scale(1.01 1)" font-size="9.36" fill="#1e0f00" font-family="Calibri">0%</text><text transform="translate(270.3 56.81) scale(1.01 1)" font-size="9.36" fill="#1e0f00" font-family="Calibri">0%</text><text transform="translate(265.52 15.75) scale(1.01 1)" font-size="9.36" fill="#1e0f00" font-family="Calibri">00%</text><path d="M231.51,265.81a.17.17,0,0,1,0-.14v-2.34a.14.14,0,0,1,0-.13.15.15,0,0,1,.13-.05H232a.17.17,0,0,1,.14.05.19.19,0,0,1,.05.13v2.34a.17.17,0,0,1-.19.19h-.35A.19.19,0,0,1,231.51,265.81Z" fill="#1e0f00"/><path d="M235.59,267.55a.13.13,0,0,1-.05.12.16.16,0,0,1-.12,0h-2.14a.15.15,0,0,1-.13,0,.19.19,0,0,1-.05-.13v-.26a.21.21,0,0,1,.05-.13.19.19,0,0,1,.13-.05h1.58l-.13-2c0-.35,0-.6-.08-.77a.73.73,0,0,0-.2-.39.65.65,0,0,0-.47-.15h-.33a.19.19,0,0,1-.13-.05.15.15,0,0,1-.05-.13v-.26a.17.17,0,0,1,.05-.13.19.19,0,0,1,.13-.05H234a1.46,1.46,0,0,1,.88.23,1.14,1.14,0,0,1,.43.63,4.94,4.94,0,0,1,.15,1l.15,2.5Z" fill="#1e0f00"/><path d="M237.24,264.42a1.62,1.62,0,0,0,.07.5.37.37,0,0,0,.25.24l.31.07a.17.17,0,0,1,.1.09.38.38,0,0,1,0,.16v.19a.12.12,0,0,1-.09.12.31.31,0,0,1-.19,0l-.31-.07c-.53-.11-.8-.57-.8-1.36v-1.06a.17.17,0,0,1,0-.13.17.17,0,0,1,.13-.05h1.48a1.69,1.69,0,0,1,1.33.51,2.21,2.21,0,0,1,.49,1.46c0,.06,0,.16,0,.31s0,.26,0,.31a2.21,2.21,0,0,1-.49,1.46,1.69,1.69,0,0,1-1.33.51h-1.38a.17.17,0,0,1-.18-.18v-.26a.17.17,0,0,1,0-.14.19.19,0,0,1,.13-.05h1.34a1.06,1.06,0,0,0,.86-.36,1.67,1.67,0,0,0,.33-1c0-.06,0-.15,0-.28s0-.22,0-.27a1.56,1.56,0,0,0-.33-1,1.06,1.06,0,0,0-.86-.36h-1Z" fill="#1e0f00"/><path d="M243.48,263.35a1.27,1.27,0,0,1,.62.67,3.13,3.13,0,0,1,.19,1.21,2.36,2.36,0,0,1-.5,1.6,3,3,0,0,1-1.32.84l-.33.12h-.06a.13.13,0,0,1-.1,0,.12.12,0,0,1,0-.11v-.35a.25.25,0,0,1,.17-.22l.32-.12a1.71,1.71,0,0,0,.84-.6,1.86,1.86,0,0,0,.3-1.15,2.14,2.14,0,0,0-.13-.84.81.81,0,0,0-.42-.45,1.93,1.93,0,0,0-.8-.13h-1a.19.19,0,0,1-.13,0,.14.14,0,0,1-.05-.13v-1.37a.15.15,0,0,1,.05-.13.16.16,0,0,1,.13-.06h.32a.16.16,0,0,1,.13.06.19.19,0,0,1,.05.13v.93h.61A2.85,2.85,0,0,1,243.48,263.35Z" fill="#1e0f00"/><path d="M200.93,277.26a.15.15,0,0,1-.05-.13v-.55a.19.19,0,0,1,.05-.14.19.19,0,0,1,.13-.05h.55a.19.19,0,0,1,.13.05.2.2,0,0,1,.06.14v.55a.16.16,0,0,1-.06.13.15.15,0,0,1-.13.05h-.55A.15.15,0,0,1,200.93,277.26Z" fill="#1e0f00"/><path d="M206.05,277.26a.15.15,0,0,1-.05-.13v-2.39a1.22,1.22,0,0,0-1.37-1.38h-1.49a.15.15,0,0,1-.13-.05.13.13,0,0,1,0-.12v-.26a.17.17,0,0,1,0-.14.18.18,0,0,1,.13,0h1.53a1.76,1.76,0,0,1,2,2v2.42a.19.19,0,0,1,0,.13.17.17,0,0,1-.14.05h-.33A.15.15,0,0,1,206.05,277.26Zm-3,0a.15.15,0,0,1,0-.13v-2.69a.15.15,0,0,1,0-.13.19.19,0,0,1,.13-.05h.33a.22.22,0,0,1,.14.05.19.19,0,0,1,0,.13v2.69a.19.19,0,0,1,0,.13.17.17,0,0,1-.14.05h-.33A.15.15,0,0,1,203,277.26Z" fill="#1e0f00"/><path d="M211.26,272.79a.22.22,0,0,1,.05.14v2.21a2,2,0,0,1-.47,1.27,2.47,2.47,0,0,1-1.24.79l-1.74.55h-.06a.17.17,0,0,1-.12,0,.12.12,0,0,1,0-.1v-.25c0-.12,0-.2.12-.22l1.05-.36-1-3.72,0-.16a.18.18,0,0,1,.05-.12.15.15,0,0,1,.11,0h.37a.21.21,0,0,1,.12,0,.18.18,0,0,1,.06.09l1,3.71a1.64,1.64,0,0,0,.88-.63,1.94,1.94,0,0,0,.25-1v-2a.16.16,0,0,1,.06-.13.14.14,0,0,1,.13-.05h.33A.2.2,0,0,1,211.26,272.79Z" fill="#1e0f00"/><path d="M212.5,275.41a.22.22,0,0,1-.05-.14v-2.34a.22.22,0,0,1,.05-.14.21.21,0,0,1,.14,0H213a.17.17,0,0,1,.13.05.19.19,0,0,1,0,.13v2.34a.22.22,0,0,1,0,.14.21.21,0,0,1-.13,0h-.35A.22.22,0,0,1,212.5,275.41Z" fill="#1e0f00"/><path d="M214.21,277.26a.19.19,0,0,1-.05-.13v-.26a.21.21,0,0,1,.05-.13.19.19,0,0,1,.13-.05h2.31v-1.95a1.22,1.22,0,0,0-1.38-1.37h-.85a.19.19,0,0,1-.13-.05.21.21,0,0,1,0-.13v-.26a.19.19,0,0,1,0-.13.15.15,0,0,1,.13-.05h.89c1.37,0,2.05.65,2.05,2v2h.31a.21.21,0,0,1,.13.05.2.2,0,0,1,0,.13v.26a.18.18,0,0,1,0,.13.17.17,0,0,1-.13.05h-3.33A.15.15,0,0,1,214.21,277.26Z" fill="#1e0f00"/><path d="M222.76,274.7v2.43a.17.17,0,0,1-.18.18h-.34a.17.17,0,0,1-.13-.05.19.19,0,0,1-.05-.13v-2.39a1.22,1.22,0,0,0-1.38-1.38h-.57c-.06.34-.09.62-.12.84s0,.47,0,.75l0,2.18a.19.19,0,0,1,0,.13.17.17,0,0,1-.13.05h-1.12a.21.21,0,0,1-.13-.05.22.22,0,0,1-.05-.14v-.24a.17.17,0,0,1,.18-.18h.62V275a7.58,7.58,0,0,1,0-.86,5.16,5.16,0,0,1,.13-.77H219a.15.15,0,0,1-.13-.05.13.13,0,0,1,0-.12v-.26a.17.17,0,0,1,0-.14.18.18,0,0,1,.13,0h1.71C222.09,272.75,222.76,273.4,222.76,274.7Z" fill="#1e0f00"/><path d="M230,274.7v2.43a.16.16,0,0,1-.06.13.15.15,0,0,1-.13.05h-.34a.17.17,0,0,1-.13-.05.19.19,0,0,1-.05-.13v-2.39a1.22,1.22,0,0,0-1.37-1.38h-.58q-.08.51-.12.84t0,.75l0,2.18a.19.19,0,0,1-.05.13.17.17,0,0,1-.13.05h-1.11a.17.17,0,0,1-.19-.19v-.24a.21.21,0,0,1,.05-.13.22.22,0,0,1,.14-.05h.61V275c0-.34,0-.62,0-.86a5.16,5.16,0,0,1,.13-.77h-.43a.15.15,0,0,1-.13-.05.13.13,0,0,1-.05-.12v-.26a.17.17,0,0,1,.05-.14.18.18,0,0,1,.13,0H228Q230,272.75,230,274.7Z" fill="#1e0f00"/><path d="M235.68,272.8a.19.19,0,0,1,0,.13v2.22a2.34,2.34,0,0,1-.28,1.18,1.87,1.87,0,0,1-.77.78,2.29,2.29,0,0,1-1.15.25h-.59a1.85,1.85,0,0,1-.94-.24,1.68,1.68,0,0,1-.65-.67,2.07,2.07,0,0,1-.24-1v-2.51a.18.18,0,0,1,.06-.14.18.18,0,0,1,.13,0h.31a.17.17,0,0,1,.18.18l0,2.27a1.46,1.46,0,0,0,1-.39,1.31,1.31,0,0,0,.28-.88v-1a.16.16,0,0,1,.06-.13.15.15,0,0,1,.13-.05h.31a.17.17,0,0,1,.18.18v1a1.76,1.76,0,0,1-.48,1.27,2.1,2.1,0,0,1-1.44.54,1.32,1.32,0,0,0,.48.72,1.44,1.44,0,0,0,.84.25h.25a1.56,1.56,0,0,0,1.19-.44,1.68,1.68,0,0,0,.42-1.19v-2.18a.19.19,0,0,1,0-.13.17.17,0,0,1,.13-.05h.32A.17.17,0,0,1,235.68,272.8Z" fill="#1e0f00"/><path d="M239.48,277.16a.13.13,0,0,1,0,.11.17.17,0,0,1-.12,0H239q-.15,0-.18-.18l-.18-.94a2.49,2.49,0,0,1-.68.72,3.1,3.1,0,0,1-.56.3,2.43,2.43,0,0,1-.54.17h-.05c-.1,0-.14-.05-.14-.13v-.38c0-.09.06-.15.17-.2l.31-.11a2.16,2.16,0,0,0,.53-.25,2.22,2.22,0,0,0,.47-.42,2.18,2.18,0,0,0,.33-.51l-.15-.72a4.44,4.44,0,0,0-.2-.74.9.9,0,0,0-.29-.42.76.76,0,0,0-.48-.15H237a.15.15,0,0,1-.13-.05.13.13,0,0,1,0-.12v-.28a.17.17,0,0,1,0-.13.19.19,0,0,1,.13,0h.3a1.54,1.54,0,0,1,.84.21,1.4,1.4,0,0,1,.52.62,4.7,4.7,0,0,1,.33,1.07l.48,2.5Z" fill="#1e0f00"/><path d="M243.49,277.26a.19.19,0,0,1-.05-.13v-2.39a1.21,1.21,0,0,0-1.37-1.38h-1.48a.17.17,0,0,1-.14-.05.17.17,0,0,1,0-.12v-.26a.22.22,0,0,1,0-.14.21.21,0,0,1,.14,0h1.52c1.36,0,2,.65,2,2v2.42a.16.16,0,0,1-.06.13.14.14,0,0,1-.13.05h-.33A.17.17,0,0,1,243.49,277.26Zm-3,0a.19.19,0,0,1,0-.13v-2.69a.19.19,0,0,1,0-.13.22.22,0,0,1,.14-.05h.33a.17.17,0,0,1,.13.05.16.16,0,0,1,.06.13v2.69a.16.16,0,0,1-.06.13.14.14,0,0,1-.13.05h-.33A.17.17,0,0,1,240.45,277.26Z" fill="#1e0f00"/><path d="M115.16,263.56V266a.19.19,0,0,1,0,.13.18.18,0,0,1-.13.06h-.34a.16.16,0,0,1-.13-.06.15.15,0,0,1-.05-.13V263.6a1.22,1.22,0,0,0-1.38-1.38h-.57q-.09.51-.12.84a5.87,5.87,0,0,0,0,.76l0,2.17a.16.16,0,0,1-.06.13.15.15,0,0,1-.13.06l-1.11,0a.19.19,0,0,1-.13-.05.17.17,0,0,1,0-.13v-.24a.17.17,0,0,1,0-.14.19.19,0,0,1,.13-.05h.62v-1.71a7.33,7.33,0,0,1,0-.85,5.06,5.06,0,0,1,.13-.78h-.43a.16.16,0,0,1-.19-.17v-.26a.17.17,0,0,1,.19-.18h1.71C114.48,261.61,115.16,262.26,115.16,263.56Z" fill="#1e0f00"/><path d="M120.84,261.66a.16.16,0,0,1,.06.13V264a2.51,2.51,0,0,1-.28,1.18,1.87,1.87,0,0,1-.78.77,2.23,2.23,0,0,1-1.14.25h-.6a1.84,1.84,0,0,1-.93-.24,1.61,1.61,0,0,1-.65-.67,2.07,2.07,0,0,1-.24-1v-2.51a.17.17,0,0,1,0-.13.17.17,0,0,1,.13-.05h.32a.17.17,0,0,1,.13.05.19.19,0,0,1,0,.13l0,2.27a1.38,1.38,0,0,0,1-.39,1.31,1.31,0,0,0,.28-.88v-1a.19.19,0,0,1,0-.13.17.17,0,0,1,.13-.05h.32a.17.17,0,0,1,.13.05.19.19,0,0,1,0,.13v1a1.71,1.71,0,0,1-.49,1.27,2.05,2.05,0,0,1-1.43.54,1.27,1.27,0,0,0,.48.72,1.36,1.36,0,0,0,.83.25h.26a1.49,1.49,0,0,0,1.18-.44,1.64,1.64,0,0,0,.43-1.19v-2.18a.17.17,0,0,1,.18-.18h.31A.14.14,0,0,1,120.84,261.66Z" fill="#1e0f00"/><path d="M124.65,266a.14.14,0,0,1-.05.11.21.21,0,0,1-.13.05h-.35c-.1,0-.16-.07-.18-.19l-.19-.93a2.32,2.32,0,0,1-.68.71,3.93,3.93,0,0,1-.55.31,3.08,3.08,0,0,1-.54.16h-.06a.12.12,0,0,1-.14-.13v-.38c0-.09.06-.15.17-.2l.32-.1a2.53,2.53,0,0,0,.52-.26,2,2,0,0,0,.47-.42,1.65,1.65,0,0,0,.33-.5l-.14-.72a3.5,3.5,0,0,0-.21-.75.83.83,0,0,0-.29-.42.73.73,0,0,0-.48-.15h-.29a.17.17,0,0,1-.13,0,.18.18,0,0,1-.06-.13v-.27a.18.18,0,0,1,.06-.14.17.17,0,0,1,.13-.05h.29a1.54,1.54,0,0,1,.84.21,1.48,1.48,0,0,1,.53.62,4.64,4.64,0,0,1,.33,1.08l.48,2.49Z" fill="#1e0f00"/><path d="M128.66,266.12a.19.19,0,0,1,0-.13V263.6a1.22,1.22,0,0,0-1.37-1.38h-1.49a.2.2,0,0,1-.13,0,.21.21,0,0,1-.05-.13v-.26a.17.17,0,0,1,.05-.13.17.17,0,0,1,.13-.05h1.53c1.36,0,2,.65,2,2V266a.15.15,0,0,1-.05.13.16.16,0,0,1-.13.06h-.34A.18.18,0,0,1,128.66,266.12Zm-3,0a.19.19,0,0,1-.05-.13V263.3a.17.17,0,0,1,.18-.18h.34a.19.19,0,0,1,.13.05.17.17,0,0,1,0,.13V266a.15.15,0,0,1,0,.13.16.16,0,0,1-.13.06h-.34A.18.18,0,0,1,125.62,266.12Z" fill="#1e0f00"/><path d="M134.94,266.12a.19.19,0,0,1-.05-.13V263.6a1.22,1.22,0,0,0-1.38-1.38h-1a.18.18,0,0,1-.13,0,.17.17,0,0,1,0-.13v-.26a.17.17,0,0,1,.18-.18h1.08c1.36,0,2,.65,2,1.95V266a.15.15,0,0,1-.05.13.16.16,0,0,1-.13.06h-.34A.16.16,0,0,1,134.94,266.12Z" fill="#1e0f00"/><path d="M136.84,266.12a.19.19,0,0,1-.05-.13v-4.2a.17.17,0,0,1,.19-.18h1.53a2.13,2.13,0,0,1,1.54.49,2,2,0,0,1,.5,1.48V266a.19.19,0,0,1-.05.13.16.16,0,0,1-.13.06H140a.16.16,0,0,1-.13-.06.19.19,0,0,1-.05-.13V263.6a1.22,1.22,0,0,0-1.38-1.38h-1V266a.16.16,0,0,1-.06.13.15.15,0,0,1-.13.06H137A.18.18,0,0,1,136.84,266.12Z" fill="#1e0f00"/><path d="M145.38,266a.15.15,0,0,1,0,.11.18.18,0,0,1-.12.05h-.36a.23.23,0,0,1-.16-.06s0-.07-.06-.07l-1.82-2.57a1.25,1.25,0,0,0-.47.59,2.18,2.18,0,0,0-.13.75V266a.15.15,0,0,1-.05.13.16.16,0,0,1-.13.06h-.3a.18.18,0,0,1-.13-.06.19.19,0,0,1-.05-.13v-1.21a2.71,2.71,0,0,1,.18-1,1.81,1.81,0,0,1,.71-.79l-.75-1a.37.37,0,0,1,0-.15.17.17,0,0,1,.16-.16h.35a.25.25,0,0,1,.22.13l1.68,2.35a1.18,1.18,0,0,0,.42-.35.94.94,0,0,0,.17-.37,2.91,2.91,0,0,0,0-.47v-1.11a.19.19,0,0,1,0-.13.17.17,0,0,1,.13-.05h.32a.17.17,0,0,1,.13.05.19.19,0,0,1,.05.13v1.15a2.06,2.06,0,0,1-.19.93,1.74,1.74,0,0,1-.75.72l.91,1.27A.24.24,0,0,1,145.38,266Z" fill="#1e0f00"/><path d="M148.76,261.82a1.25,1.25,0,0,1,.62.66,3.15,3.15,0,0,1,.19,1.22,2.3,2.3,0,0,1-.51,1.59,3,3,0,0,1-1.31.85l-.33.11h-.06a.18.18,0,0,1-.1,0,.16.16,0,0,1,0-.12v-.35a.23.23,0,0,1,.17-.21l.31-.12a1.82,1.82,0,0,0,.85-.6,1.91,1.91,0,0,0,.3-1.16,2.18,2.18,0,0,0-.13-.84.76.76,0,0,0-.42-.44,1.77,1.77,0,0,0-.8-.14h-1a.19.19,0,0,1-.19-.17v-1.38a.16.16,0,0,1,.06-.13.14.14,0,0,1,.13-.05h.32a.17.17,0,0,1,.13.05.18.18,0,0,1,0,.13v.93h.62A2.67,2.67,0,0,1,148.76,261.82Z" fill="#1e0f00"/><path d="M119.68,271.82h-1.17a.17.17,0,0,1-.13,0,.17.17,0,0,1,0-.13v-.26a.15.15,0,0,1,0-.13.14.14,0,0,1,.13-.05h1.21a2.17,2.17,0,0,1,1.54.48,2,2,0,0,1,.5,1.47v3.42a.22.22,0,0,1-.05.14.21.21,0,0,1-.13,0h-.34a.19.19,0,0,1-.13,0,.16.16,0,0,1,0-.14V273.2A1.22,1.22,0,0,0,119.68,271.82Z" fill="#1e0f00"/><path d="M126.59,275.61a.16.16,0,0,1,0,.12.18.18,0,0,1-.12,0h-.36a.21.21,0,0,1-.16-.06l-.06-.07L124,273.08a1.21,1.21,0,0,0-.47.59,2,2,0,0,0-.13.74v1.18a.15.15,0,0,1-.05.13.16.16,0,0,1-.13.06H123a.18.18,0,0,1-.13-.06.19.19,0,0,1,0-.13v-1.21a2.71,2.71,0,0,1,.18-1,1.75,1.75,0,0,1,.71-.79l-.75-1a.37.37,0,0,1,0-.15.17.17,0,0,1,.16-.16h.35a.26.26,0,0,1,.22.13l1.68,2.35a1.29,1.29,0,0,0,.42-.36.84.84,0,0,0,.17-.36,2.91,2.91,0,0,0,0-.47v-1.11a.19.19,0,0,1,0-.13.17.17,0,0,1,.13-.05h.32a.17.17,0,0,1,.13.05.19.19,0,0,1,0,.13v1.14a2.07,2.07,0,0,1-.19.94,1.8,1.8,0,0,1-.75.72l.91,1.27A.3.3,0,0,1,126.59,275.61Z" fill="#1e0f00"/><path d="M132.71,275.72a.15.15,0,0,1-.05-.13V273.2a1.22,1.22,0,0,0-1.37-1.38H129.8a.18.18,0,0,1-.13,0,.17.17,0,0,1,0-.13v-.26a.14.14,0,0,1,0-.13.15.15,0,0,1,.13-.05h1.53a1.77,1.77,0,0,1,2,2v2.41a.19.19,0,0,1-.05.13.18.18,0,0,1-.13.06h-.34A.16.16,0,0,1,132.71,275.72Zm-3,0a.15.15,0,0,1,0-.13V272.9a.17.17,0,0,1,0-.13.19.19,0,0,1,.13,0h.34a.17.17,0,0,1,.18.18v2.69a.19.19,0,0,1,0,.13.18.18,0,0,1-.13.06h-.34A.16.16,0,0,1,129.67,275.72Z" fill="#1e0f00"/><path d="M137.92,271.26a.17.17,0,0,1,.05.13v2.21a2,2,0,0,1-.46,1.27,2.5,2.5,0,0,1-1.25.79l-1.74.56h-.06a.17.17,0,0,1-.12,0,.12.12,0,0,1,0-.1v-.25c0-.12,0-.2.13-.22l1-.35-1-3.73,0-.16a.14.14,0,0,1,.05-.11.13.13,0,0,1,.11-.05h.37a.21.21,0,0,1,.12,0,.18.18,0,0,1,.06.09l1,3.71a1.64,1.64,0,0,0,.88-.63,1.92,1.92,0,0,0,.25-1v-2a.16.16,0,0,1,.06-.13.15.15,0,0,1,.13-.05h.33A.16.16,0,0,1,137.92,271.26Z" fill="#1e0f00"/><path d="M139.17,273.87a.18.18,0,0,1-.06-.13v-2.35a.15.15,0,0,1,.06-.13.14.14,0,0,1,.13-.05h.35a.17.17,0,0,1,.18.18v2.35a.17.17,0,0,1-.05.13.19.19,0,0,1-.13.05h-.35A.17.17,0,0,1,139.17,273.87Z" fill="#1e0f00"/><path d="M140.87,275.72a.19.19,0,0,1-.05-.13v-.26a.21.21,0,0,1,.05-.13.19.19,0,0,1,.13-.05h2.31V273.2a1.21,1.21,0,0,0-1.37-1.37h-.86a.19.19,0,0,1-.13-.05.21.21,0,0,1,0-.13v-.26a.19.19,0,0,1,0-.13.15.15,0,0,1,.13-.05h.9c1.36,0,2,.65,2,2v2h.31a.19.19,0,0,1,.13.05.21.21,0,0,1,0,.13v.26a.19.19,0,0,1,0,.13.16.16,0,0,1-.13.06H141A.16.16,0,0,1,140.87,275.72Z" fill="#1e0f00"/><path d="M149.43,273.16v2.43a.21.21,0,0,1-.19.19h-.34a.18.18,0,0,1-.13-.06.19.19,0,0,1-.05-.13V273.2a1.22,1.22,0,0,0-1.38-1.38h-.57q-.08.51-.12.84t0,.75l0,2.18a.19.19,0,0,1,0,.13.18.18,0,0,1-.13.06l-1.12,0a.21.21,0,0,1-.13-.05.22.22,0,0,1-.05-.14v-.24a.17.17,0,0,1,.18-.18H146v-1.71c0-.34,0-.62,0-.85a5.06,5.06,0,0,1,.13-.78h-.43a.18.18,0,0,1-.13,0,.17.17,0,0,1-.05-.13v-.26a.14.14,0,0,1,.05-.13.15.15,0,0,1,.13-.05h1.71Q149.43,271.21,149.43,273.16Z" fill="#1e0f00"/><path d="M107.93,285.32a.19.19,0,0,1-.05-.13v-.55a.24.24,0,0,1,.05-.14.21.21,0,0,1,.13-.05h.56a.21.21,0,0,1,.13.05.24.24,0,0,1,0,.14v.55a.19.19,0,0,1,0,.13.18.18,0,0,1-.13.06h-.56A.18.18,0,0,1,107.93,285.32Z" fill="#1e0f00"/><path d="M110,286.32a.2.2,0,0,1-.05-.14V281a.17.17,0,0,1,.05-.13.17.17,0,0,1,.13-.05h.34a.17.17,0,0,1,.18.18v5.19a.17.17,0,0,1,0,.14.19.19,0,0,1-.13.05h-.34A.21.21,0,0,1,110,286.32Z" fill="#1e0f00"/><path d="M111.91,283.47a.17.17,0,0,1,0-.13V281a.14.14,0,0,1,0-.13.15.15,0,0,1,.13-.05h.35a.14.14,0,0,1,.13.05.16.16,0,0,1,.06.13v2.35a.18.18,0,0,1-.06.13.17.17,0,0,1-.13,0H112A.19.19,0,0,1,111.91,283.47Z" fill="#1e0f00"/><path d="M117.18,280.86a.17.17,0,0,1,0,.13v.26a.17.17,0,0,1,0,.13.18.18,0,0,1-.13,0h-.47a.79.79,0,0,0-.18.38,2,2,0,0,0-.07.58v2.82a.16.16,0,0,1-.06.13.19.19,0,0,1-.13.05h-.34a.21.21,0,0,1-.13-.05.18.18,0,0,1,0-.13v-2.87a2.9,2.9,0,0,1,0-.56,1,1,0,0,1,.15-.35h-2.2a.16.16,0,0,1-.19-.17V281a.19.19,0,0,1,0-.13.17.17,0,0,1,.14-.05H117A.17.17,0,0,1,117.18,280.86Z" fill="#1e0f00"/><path d="M121.83,285.46a.18.18,0,0,1-.1,0,.16.16,0,0,1,0-.12V285a.23.23,0,0,1,.17-.21l.32-.12a1.84,1.84,0,0,0,.84-.6,1.91,1.91,0,0,0,.3-1.16,2.18,2.18,0,0,0-.13-.84.76.76,0,0,0-.42-.44,1.91,1.91,0,0,0-.8-.14h-1.6a.17.17,0,0,1-.13-.05.18.18,0,0,1-.06-.13V281a.19.19,0,0,1,.19-.17h1.69a2.72,2.72,0,0,1,1.17.21,1.25,1.25,0,0,1,.62.66,3.15,3.15,0,0,1,.19,1.22,2.35,2.35,0,0,1-.5,1.59,3.11,3.11,0,0,1-1.32.85l-.33.11Zm-1.59,1.4a.18.18,0,0,1-.06-.14V282.5a.18.18,0,0,1,.06-.13.17.17,0,0,1,.13-.05h.33a.17.17,0,0,1,.18.18v4.22a.19.19,0,0,1,0,.13.17.17,0,0,1-.13,0h-.33A.17.17,0,0,1,120.24,286.86Z" fill="#1e0f00"/><path d="M125.62,284.94a2.05,2.05,0,0,1-.49-1.48V281a.14.14,0,0,1,.05-.13.17.17,0,0,1,.13-.05h1.92a2,2,0,0,1,1.48.46,2.15,2.15,0,0,1,.49,1.43,3.81,3.81,0,0,1,0,.43,3.92,3.92,0,0,1,0,.43,2,2,0,0,1-.52,1.42,2.21,2.21,0,0,1-1.58.48A2,2,0,0,1,125.62,284.94Zm2.55-.43a1.36,1.36,0,0,0,.34-1,7.61,7.61,0,0,0,0-.78,1.21,1.21,0,0,0-1.32-1.32H125.8v2a1.46,1.46,0,0,0,.32,1,1.24,1.24,0,0,0,1,.35A1.53,1.53,0,0,0,128.17,284.51Z" fill="#1e0f00"/><path d="M130.9,282.08a1.34,1.34,0,0,0,.08.5.36.36,0,0,0,.24.24l.31.08a.15.15,0,0,1,.1.08.41.41,0,0,1,0,.16v.19a.14.14,0,0,1-.08.13.44.44,0,0,1-.2,0l-.31-.06c-.53-.12-.8-.57-.8-1.36V281a.17.17,0,0,1,.19-.18h1.47a1.69,1.69,0,0,1,1.33.51,2.21,2.21,0,0,1,.49,1.46,2.37,2.37,0,0,1,0,.31,2.29,2.29,0,0,1,0,.31,2.21,2.21,0,0,1-.49,1.46,1.69,1.69,0,0,1-1.33.52h-1.38a.16.16,0,0,1-.13-.06.19.19,0,0,1,0-.13v-.26a.17.17,0,0,1,0-.13.16.16,0,0,1,.13-.06h1.34a1.06,1.06,0,0,0,.86-.36,1.64,1.64,0,0,0,.33-1,2,2,0,0,0,0-.28,1.79,1.79,0,0,0,0-.27,1.61,1.61,0,0,0-.32-1,1.1,1.1,0,0,0-.87-.36h-1Z" fill="#1e0f00"/><path d="M136.79,283.47a.17.17,0,0,1,0-.13V281a.14.14,0,0,1,0-.13.15.15,0,0,1,.13-.05h.35a.15.15,0,0,1,.13.05.16.16,0,0,1,.06.13v2.35a.18.18,0,0,1-.06.13.19.19,0,0,1-.13,0h-.35A.19.19,0,0,1,136.79,283.47Z" fill="#1e0f00"/><path d="M140.87,285.22a.16.16,0,0,1-.05.11.18.18,0,0,1-.12.05h-2.14a.16.16,0,0,1-.13-.06.15.15,0,0,1-.05-.13v-.25a.17.17,0,0,1,.05-.14.19.19,0,0,1,.13-.05h1.58l-.13-2c0-.35-.06-.6-.09-.76a.72.72,0,0,0-.19-.4.65.65,0,0,0-.47-.15h-.33a.17.17,0,0,1-.13-.05.16.16,0,0,1-.06-.13V281a.18.18,0,0,1,.06-.14.17.17,0,0,1,.13,0h.33a1.49,1.49,0,0,1,.88.23,1.13,1.13,0,0,1,.42.63,4.86,4.86,0,0,1,.16,1.05l.15,2.49Z" fill="#1e0f00"/><path d="M142.52,282.08a1.36,1.36,0,0,0,.07.5.37.37,0,0,0,.25.24l.3.08a.12.12,0,0,1,.1.08.29.29,0,0,1,0,.16v.19a.14.14,0,0,1-.09.13.4.4,0,0,1-.19,0l-.31-.06c-.54-.12-.8-.57-.8-1.36V281a.17.17,0,0,1,.05-.13.15.15,0,0,1,.13-.05h1.47a1.7,1.7,0,0,1,1.34.51,2.26,2.26,0,0,1,.49,1.46c0,.06,0,.16,0,.31s0,.26,0,.31a2.26,2.26,0,0,1-.49,1.46,1.7,1.7,0,0,1-1.34.52h-1.37a.15.15,0,0,1-.13-.06.16.16,0,0,1-.06-.13v-.26a.21.21,0,0,1,.19-.19h1.33a1.07,1.07,0,0,0,.87-.36,1.64,1.64,0,0,0,.33-1v-.55a1.61,1.61,0,0,0-.33-1,1.07,1.07,0,0,0-.87-.36h-1Z" fill="#1e0f00"/><path d="M148.76,281a1.25,1.25,0,0,1,.62.66,3.35,3.35,0,0,1,.19,1.22,2.3,2.3,0,0,1-.51,1.59,3,3,0,0,1-1.31.85l-.33.11h-.06a.18.18,0,0,1-.1,0,.16.16,0,0,1,0-.12V285a.22.22,0,0,1,.17-.21l.31-.12a1.87,1.87,0,0,0,.85-.6,1.91,1.91,0,0,0,.3-1.16,2.39,2.39,0,0,0-.13-.84.82.82,0,0,0-.42-.44,2,2,0,0,0-.8-.14h-1a.19.19,0,0,1-.19-.17v-1.38a.16.16,0,0,1,.06-.13.14.14,0,0,1,.13-.05h.32a.17.17,0,0,1,.13.05.18.18,0,0,1,0,.13v.93h.62A2.67,2.67,0,0,1,148.76,281Z" fill="#1e0f00"/><path d="M37.92,271.51a.21.21,0,0,1-.05-.13V269a1.22,1.22,0,0,0-1.38-1.37h-1a.19.19,0,0,1-.13-.05.14.14,0,0,1,0-.13v-.25a.17.17,0,0,1,0-.14.19.19,0,0,1,.13-.05h1.08c1.35,0,2,.65,2,1.95v2.44a.21.21,0,0,1,0,.13.19.19,0,0,1-.13.05h-.34A.19.19,0,0,1,37.92,271.51Z" fill="#1e0f00"/><path d="M39.82,271.51a.21.21,0,0,1,0-.13v-4.2a.2.2,0,0,1,0-.14A.22.22,0,0,1,40,267h1.53a2.17,2.17,0,0,1,1.54.49,2,2,0,0,1,.5,1.48v2.42a.21.21,0,0,1-.05.13.19.19,0,0,1-.13.05H43a.19.19,0,0,1-.13-.05.17.17,0,0,1-.05-.13V269a1.22,1.22,0,0,0-1.38-1.37h-1v3.77a.18.18,0,0,1-.06.13.19.19,0,0,1-.13.05H40A.22.22,0,0,1,39.82,271.51Z" fill="#1e0f00"/><path d="M48.36,271.4a.15.15,0,0,1,0,.11.18.18,0,0,1-.12.05h-.36a.21.21,0,0,1-.16-.06l-.06-.07-1.82-2.57a1.25,1.25,0,0,0-.47.59,2,2,0,0,0-.13.75v1.18a.17.17,0,0,1-.05.13.19.19,0,0,1-.13.05h-.3a.17.17,0,0,1-.18-.18v-1.21a2.67,2.67,0,0,1,.18-1,1.83,1.83,0,0,1,.71-.8l-.75-1a.37.37,0,0,1,0-.15.13.13,0,0,1,0-.11.14.14,0,0,1,.11-.05h.35a.28.28,0,0,1,.22.14L47,269.47a1.18,1.18,0,0,0,.42-.35.84.84,0,0,0,.17-.36,3,3,0,0,0,0-.47v-1.11a.22.22,0,0,1,.05-.14.21.21,0,0,1,.13-.05h.32a.21.21,0,0,1,.13.05.22.22,0,0,1,.05.14v1.14a2.06,2.06,0,0,1-.19.93,1.88,1.88,0,0,1-.75.73l.91,1.27A.3.3,0,0,1,48.36,271.4Z" fill="#1e0f00"/><path d="M51.74,267.2a1.29,1.29,0,0,1,.62.66,3.39,3.39,0,0,1,.19,1.22,2.35,2.35,0,0,1-.51,1.6,2.92,2.92,0,0,1-1.31.84l-.33.11h-.06a.13.13,0,0,1-.1,0,.15.15,0,0,1,0-.11v-.35a.23.23,0,0,1,.17-.22l.31-.12a1.62,1.62,0,0,0,1.15-1.75,2.41,2.41,0,0,0-.13-.85.86.86,0,0,0-.42-.44,2,2,0,0,0-.8-.14h-1a.17.17,0,0,1-.13,0,.18.18,0,0,1-.06-.13v-1.38a.18.18,0,0,1,.06-.13.17.17,0,0,1,.13-.05h.32a.21.21,0,0,1,.13.05.2.2,0,0,1,0,.13V267h.62A2.7,2.7,0,0,1,51.74,267.2Z" fill="#1e0f00"/><path d="M26.71,281.11a.21.21,0,0,1-.05-.13v-.56a.19.19,0,0,1,.05-.13.18.18,0,0,1,.13-.06h.55a.18.18,0,0,1,.14.06.19.19,0,0,1,0,.13V281a.21.21,0,0,1,0,.13.22.22,0,0,1-.14.05h-.55A.21.21,0,0,1,26.71,281.11Z" fill="#1e0f00"/><path d="M28.79,282.1a.17.17,0,0,1-.05-.13v-5.19a.2.2,0,0,1,.05-.14.21.21,0,0,1,.13-.05h.34a.19.19,0,0,1,.13.05.17.17,0,0,1,.05.14V282a.17.17,0,0,1-.05.13.19.19,0,0,1-.13,0h-.34A.21.21,0,0,1,28.79,282.1Z" fill="#1e0f00"/><path d="M30.69,279.25a.15.15,0,0,1-.05-.13v-2.34a.16.16,0,0,1,.05-.14.19.19,0,0,1,.13-.05h.35a.19.19,0,0,1,.13.05.18.18,0,0,1,.06.14v2.34a.16.16,0,0,1-.06.13.15.15,0,0,1-.13.05h-.35A.15.15,0,0,1,30.69,279.25Z" fill="#1e0f00"/><path d="M36,276.64a.16.16,0,0,1,0,.14V277a.15.15,0,0,1,0,.13.19.19,0,0,1-.13,0h-.47a.75.75,0,0,0-.18.37,2.1,2.1,0,0,0-.07.58V281a.15.15,0,0,1-.06.13.19.19,0,0,1-.13.05h-.34a.19.19,0,0,1-.13-.05.17.17,0,0,1,0-.13v-2.87a2.29,2.29,0,0,1,.06-.56.9.9,0,0,1,.15-.34H32.39a.21.21,0,0,1-.13,0,.19.19,0,0,1,0-.13v-.25a.22.22,0,0,1,0-.14.21.21,0,0,1,.13-.05h3.43A.17.17,0,0,1,36,276.64Z" fill="#1e0f00"/><path d="M40.61,281.24a.13.13,0,0,1-.1,0,.15.15,0,0,1,0-.11v-.35a.24.24,0,0,1,.17-.22l.31-.12a1.82,1.82,0,0,0,.85-.6,1.88,1.88,0,0,0,.3-1.15,2.2,2.2,0,0,0-.13-.85.79.79,0,0,0-.42-.44,1.91,1.91,0,0,0-.8-.14h-1.6a.17.17,0,0,1-.14-.05.19.19,0,0,1,0-.13v-.27a.17.17,0,0,1,0-.13.22.22,0,0,1,.14-.05h1.69a2.72,2.72,0,0,1,1.17.21,1.29,1.29,0,0,1,.62.66,3.39,3.39,0,0,1,.19,1.22,2.35,2.35,0,0,1-.51,1.6,2.92,2.92,0,0,1-1.31.84l-.33.11Zm-1.6,1.4a.2.2,0,0,1,0-.14v-4.21a.17.17,0,0,1,0-.13.18.18,0,0,1,.14-.06h.32a.18.18,0,0,1,.14.06.17.17,0,0,1,0,.13v4.21a.17.17,0,0,1,0,.13.18.18,0,0,1-.14.06h-.32A.22.22,0,0,1,39,282.64Z" fill="#1e0f00"/><path d="M44.4,280.72a2.05,2.05,0,0,1-.49-1.48v-2.46a.16.16,0,0,1,.05-.14.19.19,0,0,1,.13-.05H46a2,2,0,0,1,1.48.47,2.1,2.1,0,0,1,.49,1.42s0,.2,0,.43,0,.38,0,.43a2,2,0,0,1-.52,1.43,2.27,2.27,0,0,1-1.59.47A1.92,1.92,0,0,1,44.4,280.72Zm2.55-.43a1.36,1.36,0,0,0,.34-1,7.61,7.61,0,0,0,0-.78,1.36,1.36,0,0,0-.36-1,1.35,1.35,0,0,0-1-.33H44.58v2a1.46,1.46,0,0,0,.32,1,1.25,1.25,0,0,0,1,.36A1.53,1.53,0,0,0,47,280.29Z" fill="#1e0f00"/><path d="M49.68,277.86a1.69,1.69,0,0,0,.07.51.38.38,0,0,0,.25.23l.31.08a.19.19,0,0,1,.1.08.43.43,0,0,1,0,.17v.18a.14.14,0,0,1-.09.13.3.3,0,0,1-.19,0l-.31-.06c-.53-.12-.8-.57-.8-1.36v-1.06a.2.2,0,0,1,.05-.14.21.21,0,0,1,.13-.05h1.48a1.69,1.69,0,0,1,1.33.51,2.21,2.21,0,0,1,.49,1.47,2.12,2.12,0,0,1,0,.3,3.24,3.24,0,0,1-.5,1.78,1.69,1.69,0,0,1-1.33.51H49.33a.19.19,0,0,1-.13-.05.17.17,0,0,1-.05-.13v-.27a.17.17,0,0,1,.18-.18h1.34a1.06,1.06,0,0,0,.86-.36,1.68,1.68,0,0,0,.33-1s0-.15,0-.28,0-.22,0-.27a1.56,1.56,0,0,0-.33-1,1.06,1.06,0,0,0-.86-.36h-1Z" fill="#1e0f00"/><path d="M35.76,305.48a.2.2,0,0,1,.05.14v.25a.17.17,0,0,1-.05.13.22.22,0,0,1-.14.05h-.47a1,1,0,0,0-.18.37,2.56,2.56,0,0,0-.07.58v2.82a.17.17,0,0,1,0,.13.24.24,0,0,1-.14.05h-.34a.17.17,0,0,1-.12-.05.17.17,0,0,1,0-.13V307a2.29,2.29,0,0,1,.06-.56.67.67,0,0,1,.15-.34H32.2a.19.19,0,0,1-.13-.05.15.15,0,0,1-.06-.13v-.25a.18.18,0,0,1,.06-.14.19.19,0,0,1,.13-.05h3.42A.2.2,0,0,1,35.76,305.48Z" fill="#1e0f00"/><path d="M36.63,305.8a.13.13,0,0,1,0-.1.35.35,0,0,1,0-.12L37,304.5a.56.56,0,0,1,.09-.14.2.2,0,0,1,.14,0h.25a.13.13,0,0,1,.12.17l-.18,1.12c0,.15-.09.23-.22.23h-.51A.1.1,0,0,1,36.63,305.8Zm1.25,0a.17.17,0,0,1,0-.1.74.74,0,0,1,0-.12l.42-1.08a.28.28,0,0,1,.09-.14.18.18,0,0,1,.14,0h.25a.14.14,0,0,1,.1.05.16.16,0,0,1,0,.12l-.18,1.12c0,.15-.09.23-.22.23H38A.12.12,0,0,1,37.88,305.8Z" fill="#1e0f00"/><path d="M40,310a.21.21,0,0,1,0-.13v-4.2a.2.2,0,0,1,0-.14.21.21,0,0,1,.13-.05h.36a.21.21,0,0,1,.13.05.22.22,0,0,1,0,.14v4.2a.17.17,0,0,1-.18.18H40.1A.21.21,0,0,1,40,310Z" fill="#1e0f00"/><path d="M45.24,305.48a.2.2,0,0,1,0,.14v2.2a1.94,1.94,0,0,1-.47,1.27,2.48,2.48,0,0,1-1.24.8l-1.74.55h-.06a.25.25,0,0,1-.12,0,.14.14,0,0,1,0-.11v-.24c0-.13,0-.2.12-.23l1-.35-1-3.73a.66.66,0,0,1,0-.16.17.17,0,0,1,.16-.16h.37a.16.16,0,0,1,.12,0,.16.16,0,0,1,.06.08l1,3.71a1.64,1.64,0,0,0,.88-.63,1.88,1.88,0,0,0,.25-1v-2a.18.18,0,0,1,.06-.14.17.17,0,0,1,.13-.05h.33A.2.2,0,0,1,45.24,305.48Z" fill="#1e0f00"/><path d="M48.89,309.58a2,2,0,0,1-.48-1.46v-2.5a.17.17,0,0,1,.06-.14.19.19,0,0,1,.13-.05h.3a.17.17,0,0,1,.19.19v2.46a1.46,1.46,0,0,0,.33,1,1.32,1.32,0,0,0,1,.35,1.29,1.29,0,0,0,1-.33,1.39,1.39,0,0,0,.33-1v-.82a1.57,1.57,0,0,0-.28-1,.88.88,0,0,0-.72-.32,1,1,0,0,0-.32.06,1,1,0,0,0-.3.13l-.08,0a.13.13,0,0,1-.1,0,.14.14,0,0,1,0-.1v-.23a.71.71,0,0,1,0-.16.16.16,0,0,1,.09-.09,1.19,1.19,0,0,1,.36-.17,2,2,0,0,1,.47-.05,1.5,1.5,0,0,1,1.18.45,2.18,2.18,0,0,1,.43,1.4,11,11,0,0,1,0,.94,2.17,2.17,0,0,1-3.54,1.4Z" fill="#1e0f00"/><path d="M53.32,305.8a.17.17,0,0,1,0-.1.3.3,0,0,1,0-.12l.42-1.08a.37.37,0,0,1,.08-.14.22.22,0,0,1,.15,0h.25a.14.14,0,0,1,.1.05.16.16,0,0,1,0,.12l-.18,1.12c0,.15-.09.23-.22.23h-.52A.12.12,0,0,1,53.32,305.8Zm1.26,0a.13.13,0,0,1,0-.1.35.35,0,0,1,0-.12L55,304.5a.56.56,0,0,1,.09-.14.21.21,0,0,1,.15,0h.24a.11.11,0,0,1,.1.05.12.12,0,0,1,0,.12l-.17,1.12c0,.15-.09.23-.23.23h-.51A.1.1,0,0,1,54.58,305.8Z" fill="#1e0f00"/><path d="M56.67,310a.18.18,0,0,1-.06-.13v-.27a.15.15,0,0,1,.06-.13.14.14,0,0,1,.13-.05h1.14a1.36,1.36,0,0,0,1-.35,1.63,1.63,0,0,0,.36-1v-.55a1.55,1.55,0,0,0-.36-1,1.36,1.36,0,0,0-1-.35H56.8a.14.14,0,0,1-.13-.05.16.16,0,0,1-.06-.13v-.26a.17.17,0,0,1,.06-.14.17.17,0,0,1,.13-.05H58a2,2,0,0,1,1.51.51,2.13,2.13,0,0,1,.52,1.47,2.45,2.45,0,0,1,0,.3,2.73,2.73,0,0,1,0,.31,2.13,2.13,0,0,1-.52,1.47A2,2,0,0,1,58,310H56.8A.17.17,0,0,1,56.67,310Z" fill="#1e0f00"/><path d="M65.57,305.48a.17.17,0,0,1,.05.14v2.22a2.48,2.48,0,0,1-.27,1.18,2,2,0,0,1-.78.78,2.38,2.38,0,0,1-1.15.25h-.59a1.85,1.85,0,0,1-.94-.24,1.77,1.77,0,0,1-.65-.68,2.14,2.14,0,0,1-.23-1v-2.51a.16.16,0,0,1,.05-.14.19.19,0,0,1,.13-.05h.31a.17.17,0,0,1,.13.05.18.18,0,0,1,.06.14l0,2.27a1.44,1.44,0,0,0,1-.39,1.33,1.33,0,0,0,.29-.88v-1a.17.17,0,0,1,.05-.14.19.19,0,0,1,.13-.05h.31a.17.17,0,0,1,.13.05.18.18,0,0,1,.06.14v1a1.74,1.74,0,0,1-.49,1.26,2.12,2.12,0,0,1-1.43.55,1.23,1.23,0,0,0,.47.71,1.37,1.37,0,0,0,.84.25h.25a1.51,1.51,0,0,0,1.19-.44,1.65,1.65,0,0,0,.42-1.19v-2.17a.17.17,0,0,1,.19-.19h.31A.19.19,0,0,1,65.57,305.48Z" fill="#1e0f00"/><path d="M68.71,308.09a.16.16,0,0,1-.06-.13v-2.34a.17.17,0,0,1,.06-.14.17.17,0,0,1,.13-.05h.35a.19.19,0,0,1,.13.05.17.17,0,0,1,.05.14V308a.17.17,0,0,1-.18.18h-.35A.14.14,0,0,1,68.71,308.09Z" fill="#1e0f00"/><path d="M72.6,305.48a.17.17,0,0,1,.05.14v.25a.14.14,0,0,1-.05.13.19.19,0,0,1-.13.05H72a1,1,0,0,0-.18.37,2.1,2.1,0,0,0-.07.58v2.82a.17.17,0,0,1,0,.13.19.19,0,0,1-.13.05h-.34a.21.21,0,0,1-.13-.05.17.17,0,0,1,0-.13V307a3,3,0,0,1,0-.56.9.9,0,0,1,.15-.34h-.7a.19.19,0,0,1-.13-.05.14.14,0,0,1,0-.13v-.25a.17.17,0,0,1,0-.14.19.19,0,0,1,.13-.05h1.92A.19.19,0,0,1,72.6,305.48Z" fill="#1e0f00"/><path d="M73.76,310a.21.21,0,0,1-.05-.13v-4.2a.2.2,0,0,1,.05-.14.21.21,0,0,1,.13-.05h.36a.21.21,0,0,1,.13.05.22.22,0,0,1,.05.14v4.2a.17.17,0,0,1-.18.18h-.36A.21.21,0,0,1,73.76,310Z" fill="#1e0f00"/><path d="M75.72,310a.21.21,0,0,1,0-.13v-4.2a.2.2,0,0,1,0-.14.21.21,0,0,1,.13-.05h1.54a2.17,2.17,0,0,1,1.54.49,2,2,0,0,1,.5,1.48v2.42a.17.17,0,0,1-.18.18h-.34a.19.19,0,0,1-.13-.05.17.17,0,0,1,0-.13v-2.4a1.22,1.22,0,0,0-1.38-1.37h-1v3.77a.17.17,0,0,1-.05.13.19.19,0,0,1-.13.05h-.34A.21.21,0,0,1,75.72,310Z" fill="#1e0f00"/><path d="M84.26,309.84a.13.13,0,0,1-.05.11.16.16,0,0,1-.11.05h-.36a.21.21,0,0,1-.16-.06l-.06-.07-1.83-2.57a1.23,1.23,0,0,0-.46.59,2,2,0,0,0-.13.75v1.18a.21.21,0,0,1,0,.13.19.19,0,0,1-.13.05h-.3a.19.19,0,0,1-.13-.05.21.21,0,0,1,0-.13v-1.21a2.67,2.67,0,0,1,.18-1,1.77,1.77,0,0,1,.71-.8l-.75-1a.24.24,0,0,1,0-.15.15.15,0,0,1,0-.11.18.18,0,0,1,.12-.05H81a.28.28,0,0,1,.22.14l1.68,2.34a1.39,1.39,0,0,0,.42-.35,1,1,0,0,0,.17-.36,3,3,0,0,0,0-.47v-1.11a.22.22,0,0,1,0-.14.19.19,0,0,1,.13-.05h.31a.17.17,0,0,1,.19.19v1.14a2.06,2.06,0,0,1-.19.93,1.91,1.91,0,0,1-.76.73l.92,1.27A.3.3,0,0,1,84.26,309.84Z" fill="#1e0f00"/><path d="M177.75,305.48a.2.2,0,0,1,.05.14v2.2a1.94,1.94,0,0,1-.47,1.27,2.48,2.48,0,0,1-1.24.8l-1.74.55h-.07a.21.21,0,0,1-.11,0,.14.14,0,0,1,0-.11v-.24a.22.22,0,0,1,.13-.23l1.05-.35-1-3.73a.66.66,0,0,1,0-.16.17.17,0,0,1,.16-.16h.37a.16.16,0,0,1,.12,0,.16.16,0,0,1,.06.08l1,3.71a1.64,1.64,0,0,0,.88-.63,1.88,1.88,0,0,0,.25-1v-2a.17.17,0,0,1,.19-.19h.33A.2.2,0,0,1,177.75,305.48Z" fill="#1e0f00"/><path d="M181.63,309.85a.16.16,0,0,1,0,.11.2.2,0,0,1-.13,0h-.35q-.15,0-.18-.18l-.19-.94a2.32,2.32,0,0,1-.68.71,2.87,2.87,0,0,1-.55.31,2.41,2.41,0,0,1-.54.16h-.06c-.09,0-.14,0-.14-.13v-.37a.22.22,0,0,1,.17-.2l.32-.11a2.51,2.51,0,0,0,.52-.25,2,2,0,0,0,.47-.42,1.68,1.68,0,0,0,.33-.51l-.14-.72a4.47,4.47,0,0,0-.21-.75,1,1,0,0,0-.29-.42.78.78,0,0,0-.48-.14h-.29A.22.22,0,0,1,179,306a.17.17,0,0,1-.05-.13v-.27a.19.19,0,0,1,.05-.13.17.17,0,0,1,.14-.05h.29a1.63,1.63,0,0,1,.84.2,1.48,1.48,0,0,1,.53.62,5,5,0,0,1,.33,1.08l.48,2.5Z" fill="#1e0f00"/><path d="M183.18,306.7a1.42,1.42,0,0,0,.07.51.36.36,0,0,0,.25.23l.3.08a.14.14,0,0,1,.1.08.31.31,0,0,1,0,.17V308a.14.14,0,0,1-.09.13.31.31,0,0,1-.19,0l-.31-.06c-.54-.12-.8-.57-.8-1.36v-1.06a.2.2,0,0,1,0-.14.21.21,0,0,1,.13-.05h1.47a1.7,1.7,0,0,1,1.34.51,2.27,2.27,0,0,1,.49,1.47s0,.15,0,.3,0,.26,0,.31a2.27,2.27,0,0,1-.49,1.47,1.7,1.7,0,0,1-1.34.51h-1.37a.17.17,0,0,1-.13-.05.18.18,0,0,1-.06-.13v-.27a.16.16,0,0,1,.06-.13.17.17,0,0,1,.13-.05h1.33A1.07,1.07,0,0,0,185,309a1.68,1.68,0,0,0,.33-1v-.55a1.61,1.61,0,0,0-.33-1,1.07,1.07,0,0,0-.87-.36h-1Z" fill="#1e0f00"/><path d="M189.33,309.84a.17.17,0,0,1-.05.12.17.17,0,0,1-.12,0H187a.19.19,0,0,1-.13-.05.17.17,0,0,1,0-.13v-.26a.17.17,0,0,1,.18-.18h1.58l-.13-2c0-.34-.06-.6-.09-.76a.75.75,0,0,0-.19-.4.65.65,0,0,0-.47-.15h-.33a.19.19,0,0,1-.19-.17v-.26a.16.16,0,0,1,.06-.13.14.14,0,0,1,.13-.05h.33a1.49,1.49,0,0,1,.88.22,1.2,1.2,0,0,1,.42.63,5.07,5.07,0,0,1,.16,1.05l.15,2.5Z" fill="#1e0f00"/><path d="M192.66,305.64a1.21,1.21,0,0,1,.62.66,3.17,3.17,0,0,1,.2,1.22,2.35,2.35,0,0,1-.51,1.6,2.92,2.92,0,0,1-1.31.84l-.34.11h0a.13.13,0,0,1-.1,0,.14.14,0,0,1,0-.11v-.35c0-.1.06-.17.18-.22l.31-.12a1.62,1.62,0,0,0,1.15-1.75,2.41,2.41,0,0,0-.13-.85.86.86,0,0,0-.42-.44,2,2,0,0,0-.81-.14h-1a.22.22,0,0,1-.14-.05.19.19,0,0,1,0-.13V304.5a.21.21,0,0,1,0-.13.22.22,0,0,1,.14-.05h.32a.17.17,0,0,1,.17.18v.93h.62A2.62,2.62,0,0,1,192.66,305.64Z" fill="#1e0f00"/><path d="M196.5,308.09a.16.16,0,0,1-.06-.13v-2.34a.17.17,0,0,1,.06-.14.17.17,0,0,1,.13-.05H197a.19.19,0,0,1,.13.05.17.17,0,0,1,0,.14V308a.17.17,0,0,1-.18.18h-.35A.14.14,0,0,1,196.5,308.09Z" fill="#1e0f00"/><path d="M198.4,310a.17.17,0,0,1-.05-.13v-4.2a.16.16,0,0,1,.05-.14.19.19,0,0,1,.13-.05h.35a.17.17,0,0,1,.13.05.18.18,0,0,1,.06.14v4.2a.18.18,0,0,1-.06.13.17.17,0,0,1-.13.05h-.35A.19.19,0,0,1,198.4,310Z" fill="#1e0f00"/><path d="M203.2,307.46a1.69,1.69,0,0,1-.75.67l.83,1.2a.36.36,0,0,1,.1.24v.25a.17.17,0,0,1-.18.18h-2.88a.22.22,0,0,1-.14-.05.21.21,0,0,1-.05-.13v-.27a.16.16,0,0,1,.19-.17h2.17l-2.5-3.64a.45.45,0,0,1-.07-.15.14.14,0,0,1,.06-.11.17.17,0,0,1,.12-.05h.35a.25.25,0,0,1,.22.13l1.43,2.06a1.3,1.3,0,0,0,.68-1.31v-.69a.2.2,0,0,1,.05-.14.21.21,0,0,1,.13-.05h.32a.21.21,0,0,1,.13.05.22.22,0,0,1,.05.14v.78A2.11,2.11,0,0,1,203.2,307.46Z" fill="#1e0f00"/><path d="M204.55,308.09a.19.19,0,0,1-.05-.13v-2.34a.2.2,0,0,1,.05-.14.21.21,0,0,1,.13-.05H205a.17.17,0,0,1,.19.19V308a.19.19,0,0,1-.05.13.17.17,0,0,1-.14.05h-.35A.17.17,0,0,1,204.55,308.09Z" fill="#1e0f00"/><path d="M207,306.7a1.42,1.42,0,0,0,.07.51.36.36,0,0,0,.25.23l.3.08a.16.16,0,0,1,.1.08.43.43,0,0,1,0,.17V308a.14.14,0,0,1-.09.13.31.31,0,0,1-.19,0l-.32-.06c-.53-.12-.8-.57-.8-1.36v-1.06a.17.17,0,0,1,.06-.14.17.17,0,0,1,.13-.05h1.47a1.71,1.71,0,0,1,1.34.51,2.27,2.27,0,0,1,.48,1.47,2.12,2.12,0,0,1,0,.3,2.2,2.2,0,0,1,0,.31,2.27,2.27,0,0,1-.48,1.47,1.71,1.71,0,0,1-1.34.51h-1.38a.17.17,0,0,1-.18-.18v-.27a.19.19,0,0,1,.05-.13.21.21,0,0,1,.13-.05H208a1.06,1.06,0,0,0,.86-.36,1.56,1.56,0,0,0,.33-1,1.87,1.87,0,0,0,0-.28,1.79,1.79,0,0,0,0-.27,1.61,1.61,0,0,0-.32-1,1.1,1.1,0,0,0-.87-.36h-1Z" fill="#1e0f00"/><path d="M214.05,310a.17.17,0,0,1-.05-.13v-2.4a1.21,1.21,0,0,0-1.37-1.37h-1.49A.19.19,0,0,1,211,306a.14.14,0,0,1,0-.13v-.25a.16.16,0,0,1,0-.14.19.19,0,0,1,.13-.05h1.53a1.77,1.77,0,0,1,2,2v2.42a.21.21,0,0,1,0,.13.22.22,0,0,1-.14.05h-.33A.19.19,0,0,1,214.05,310Zm-3,0a.17.17,0,0,1,0-.13v-2.69a.14.14,0,0,1,0-.13.16.16,0,0,1,.13-.06h.33a.18.18,0,0,1,.14.06.17.17,0,0,1,0,.13v2.69a.21.21,0,0,1,0,.13.22.22,0,0,1-.14.05h-.33A.19.19,0,0,1,211,310Z" fill="#1e0f00"/><path d="M221.93,307.38v2.44a.17.17,0,0,1-.18.18h-.34a.19.19,0,0,1-.13-.05.17.17,0,0,1-.05-.13v-2.4a1.22,1.22,0,0,0-1.38-1.37h-.58c-.05.33-.09.61-.11.83a6,6,0,0,0,0,.76l0,2.18a.18.18,0,0,1-.06.13.17.17,0,0,1-.13.05l-1.11,0a.17.17,0,0,1-.18-.18v-.24a.17.17,0,0,1,.18-.18h.62v-1.71a7.4,7.4,0,0,1,0-.85,5,5,0,0,1,.13-.77h-.43a.22.22,0,0,1-.14-.05.17.17,0,0,1-.05-.13v-.25a.2.2,0,0,1,.05-.14.22.22,0,0,1,.14-.05h1.71C221.25,305.43,221.93,306.08,221.93,307.38Z" fill="#1e0f00"/><path d="M225.59,310a.21.21,0,0,1-.05-.13v-2.4a1.22,1.22,0,0,0-1.38-1.37h-1A.19.19,0,0,1,223,306a.14.14,0,0,1-.05-.13v-.25a.17.17,0,0,1,.05-.14.19.19,0,0,1,.13-.05h1.08c1.36,0,2,.65,2,1.95v2.44a.17.17,0,0,1-.05.13.19.19,0,0,1-.13.05h-.34A.21.21,0,0,1,225.59,310Z" fill="#1e0f00"/><path d="M231.51,307.38v2.44a.18.18,0,0,1-.06.13.17.17,0,0,1-.13.05H231a.22.22,0,0,1-.14-.05.21.21,0,0,1,0-.13v-2.4a1.21,1.21,0,0,0-1.37-1.37h-.58c0,.33-.09.61-.12.83a6.15,6.15,0,0,0,0,.76v2.18a.17.17,0,0,1-.05.13.19.19,0,0,1-.13.05l-1.11,0a.17.17,0,0,1-.14-.05.19.19,0,0,1,0-.13v-.24a.19.19,0,0,1,0-.13.17.17,0,0,1,.14-.05H228v-1.71c0-.33,0-.62,0-.85a6.52,6.52,0,0,1,.13-.77h-.43a.21.21,0,0,1-.13-.05.17.17,0,0,1,0-.13v-.25a.2.2,0,0,1,0-.14.21.21,0,0,1,.13-.05h1.71Q231.51,305.43,231.51,307.38Z" fill="#1e0f00"/><path d="M232.7,308.09a.19.19,0,0,1,0-.13v-2.34a.2.2,0,0,1,0-.14.21.21,0,0,1,.13-.05h.36a.21.21,0,0,1,.13.05.22.22,0,0,1,.05.14V308a.19.19,0,0,1-.05.13.17.17,0,0,1-.13.05h-.36A.17.17,0,0,1,232.7,308.09Z" fill="#1e0f00"/><path d="M236.52,308.09a.15.15,0,0,1-.05-.13v-2.34a.16.16,0,0,1,.05-.14.19.19,0,0,1,.13-.05H237a.17.17,0,0,1,.19.19V308a.19.19,0,0,1-.05.13.17.17,0,0,1-.14.05h-.35A.15.15,0,0,1,236.52,308.09Z" fill="#1e0f00"/><path d="M240.41,305.48a.18.18,0,0,1,.06.14v.25a.15.15,0,0,1-.06.13.17.17,0,0,1-.13.05h-.48a1,1,0,0,0-.18.37,2.56,2.56,0,0,0-.07.58v2.82a.14.14,0,0,1-.05.13.19.19,0,0,1-.13.05H239a.17.17,0,0,1-.12-.05.14.14,0,0,1,0-.13V307a3,3,0,0,1,0-.56.77.77,0,0,1,.16-.34h-.71a.19.19,0,0,1-.13-.05.17.17,0,0,1,0-.13v-.25a.22.22,0,0,1,0-.14.19.19,0,0,1,.13-.05h1.92A.17.17,0,0,1,240.41,305.48Z" fill="#1e0f00"/><path d="M241.57,310a.21.21,0,0,1,0-.13v-4.2a.2.2,0,0,1,0-.14.22.22,0,0,1,.14-.05h.35a.19.19,0,0,1,.13.05.22.22,0,0,1,.05.14v4.2a.21.21,0,0,1-.05.13.19.19,0,0,1-.13.05h-.35A.22.22,0,0,1,241.57,310Z" fill="#1e0f00"/><path d="M243.53,310a.21.21,0,0,1-.05-.13v-4.2a.2.2,0,0,1,.05-.14.22.22,0,0,1,.14-.05h1.53a2.17,2.17,0,0,1,1.54.49,2,2,0,0,1,.5,1.48v2.42a.21.21,0,0,1-.05.13.19.19,0,0,1-.13.05h-.34a.17.17,0,0,1-.18-.18v-2.4a1.22,1.22,0,0,0-1.38-1.37h-1v3.77a.21.21,0,0,1-.05.13.22.22,0,0,1-.14.05h-.33A.22.22,0,0,1,243.53,310Z" fill="#1e0f00"/><path d="M252.07,309.84a.15.15,0,0,1,0,.11.18.18,0,0,1-.12.05h-.36a.23.23,0,0,1-.16-.06l-.06-.07-1.82-2.57a1.25,1.25,0,0,0-.47.59,2.27,2.27,0,0,0-.13.75v1.18a.17.17,0,0,1,0,.13.19.19,0,0,1-.13.05h-.3a.17.17,0,0,1-.18-.18v-1.21a2.67,2.67,0,0,1,.18-1,1.83,1.83,0,0,1,.71-.8l-.75-1a.33.33,0,0,1,0-.15.13.13,0,0,1,0-.11.16.16,0,0,1,.11-.05h.35a.26.26,0,0,1,.22.14l1.68,2.34a1.33,1.33,0,0,0,.43-.35,1,1,0,0,0,.16-.36,3,3,0,0,0,0-.47v-1.11a.22.22,0,0,1,0-.14.21.21,0,0,1,.13-.05h.32a.21.21,0,0,1,.13.05.22.22,0,0,1,.05.14v1.14a2.06,2.06,0,0,1-.19.93,1.81,1.81,0,0,1-.75.73l.91,1.27A.23.23,0,0,1,252.07,309.84Z" fill="#1e0f00"/></g></g></svg>